<?xml version="1.0" encoding="UTF-8"?>
<svg id="Layer_2" data-name="Layer 2" xmlns="http://www.w3.org/2000/svg" viewBox="0 0 96.96 36.74">
  <defs>
    <style>
      .cls-1 {
        fill: #fff;
      }

      .cls-2 {
        fill: #d40055;
      }

      .cls-3 {
        fill: #122c50;
      }
    </style>
  </defs>
  <g id="Layer_1-2" data-name="Layer 1">
    <g>
      <g>
        <path class="cls-3" d="M33.12,3.73v29.5H3.62V3.73h29.5m1.55-1.56H2.07V34.79H34.68V2.18h0Z"/>
        <path class="cls-2" d="M29.43,7.42V29.54H7.31V7.42H29.43m1.55-1.56H5.76V31.1H30.99V5.87h0Z"/>
        <g>
          <g>
            <rect class="cls-1" x="15.91" y=".29" width="4.92" height="3.77"/>
            <rect class="cls-1" x="15.91" y="32.68" width="4.92" height="3.77"/>
          </g>
          <g>
            <rect class="cls-1" x="32.69" y="15.91" width="3.77" height="4.92"/>
            <rect class="cls-1" x=".29" y="15.91" width="3.77" height="4.92"/>
          </g>
        </g>
        <g>
          <g>
            <rect class="cls-3" x="17.59" width="1.56" height="3.83"/>
            <rect class="cls-3" x="17.59" y="32.92" width="1.56" height="3.83"/>
          </g>
          <g>
            <rect class="cls-3" x="32.92" y="17.6" width="3.83" height="1.55"/>
            <rect class="cls-3" y="17.6" width="3.83" height="1.55"/>
          </g>
        </g>
      </g>
      <g>
        <path class="cls-3" d="M46.53,12.23v3.87c0,.54-.19,.99-.57,1.35-.38,.36-.85,.54-1.4,.54h-2.48V7.46h1.2v2.35l2.02,.71c.35,.12,.64,.33,.88,.62,.24,.3,.35,.66,.35,1.09Zm-3.25,4.86h1.02c.28,0,.52-.09,.72-.29,.2-.19,.3-.43,.3-.71v-3.63c0-.38-.05-.66-.16-.83-.11-.17-.29-.3-.55-.38l-1.34-.45v6.29Z"/>
        <path class="cls-3" d="M50.86,10.06v.89c-.26,0-.83,.21-1.7,.63v6.41h-1.2v-7.83h.93l.14,.56c.61-.3,1.03-.49,1.26-.56,.23-.07,.42-.11,.57-.11Z"/>
        <path class="cls-3" d="M52.22,10.17h1.81c.55,0,.99,.16,1.32,.49s.49,.77,.49,1.33v6.01h-2.24c-.55,0-1.02-.2-1.41-.59-.39-.39-.58-.88-.58-1.47v-.78c0-.47,.12-.87,.35-1.19,.24-.32,.53-.55,.88-.68l1.87-.69v-.71c0-.24-.07-.44-.22-.6-.15-.15-.33-.23-.56-.23h-1.7v-.89Zm.45,5.09v.84c0,.27,.1,.5,.3,.69,.2,.19,.44,.29,.72,.29h1.01v-3.54l-1.32,.5c-.26,.1-.44,.24-.55,.41-.11,.17-.16,.44-.16,.81Z"/>
        <path class="cls-3" d="M57.48,10.17h.93l.13,.44c.14-.04,.36-.11,.67-.2,.31-.09,.52-.15,.66-.18,.39-.11,.75-.17,1.06-.17s.56,.13,.73,.38c.17,.25,.26,.58,.26,.98v6.58h-1.2v-6.19c0-.29-.02-.49-.06-.61-.04-.12-.12-.17-.24-.17s-.7,.16-1.73,.48v6.49h-1.2v-7.83Z"/>
        <path class="cls-3" d="M66.71,7.46h1.2v10.54h-2.33c-.63,0-1.14-.19-1.54-.56-.39-.37-.59-.87-.59-1.49v-3.75c0-.43,.12-.8,.35-1.1,.24-.3,.53-.51,.88-.62l2.02-.71v-2.32Zm0,9.63v-6.32l-1.34,.45c-.26,.08-.44,.21-.55,.38-.11,.18-.16,.46-.16,.84v3.51c0,.36,.11,.64,.32,.84,.21,.2,.5,.3,.86,.3h.87Z"/>
        <path class="cls-3" d="M71.98,10.17h.93l.13,.44c.14-.04,.36-.11,.67-.2,.31-.09,.52-.15,.66-.18,.39-.11,.75-.17,1.06-.17s.56,.13,.73,.38c.17,.25,.26,.58,.26,.98v6.58h-1.2v-6.19c0-.29-.02-.49-.06-.61-.04-.12-.12-.17-.24-.17s-.7,.16-1.73,.48v6.49h-1.2v-7.83Z"/>
        <path class="cls-3" d="M78.32,10.17h1.81c.55,0,.99,.16,1.32,.49,.33,.33,.49,.77,.49,1.33v6.01h-2.24c-.55,0-1.02-.2-1.41-.59-.39-.39-.58-.88-.58-1.47v-.78c0-.47,.12-.87,.35-1.19,.24-.32,.53-.55,.88-.68l1.87-.69v-.71c0-.24-.07-.44-.22-.6-.15-.15-.33-.23-.56-.23h-1.7v-.89Zm.45,5.09v.84c0,.27,.1,.5,.3,.69,.2,.19,.44,.29,.72,.29h1.01v-3.54l-1.33,.5c-.26,.1-.44,.24-.55,.41-.11,.17-.16,.44-.16,.81Z"/>
        <path class="cls-3" d="M87.87,10.64c1.04-.38,1.78-.57,2.21-.57,.78,0,1.17,.45,1.17,1.36v6.58h-1.21v-6.19c0-.29-.02-.49-.06-.61-.04-.12-.12-.17-.24-.17s-.69,.16-1.72,.48v6.49h-1.2v-6.19c0-.29-.02-.49-.06-.61-.04-.12-.12-.17-.24-.17s-.7,.16-1.75,.48v6.49h-1.2v-7.83h.93l.14,.44c.14-.04,.36-.11,.67-.2,.31-.09,.52-.15,.65-.18,.39-.11,.72-.17,.99-.17,.43,0,.73,.19,.9,.57Z"/>
        <path class="cls-3" d="M94.66,17.09h1.63v.9h-1.81c-.55,0-.99-.17-1.32-.5-.33-.33-.49-.78-.49-1.34v-4c0-.65,.18-1.16,.54-1.54,.36-.37,.9-.56,1.61-.56s1.25,.19,1.6,.56c.36,.37,.53,.88,.53,1.54v.69c0,.72-.44,1.2-1.31,1.45l-1.78,.5v1.48c0,.24,.07,.44,.22,.59,.15,.16,.33,.23,.56,.23Zm-.78-5.19v1.94c.23-.07,.48-.14,.74-.2,.26-.07,.44-.11,.53-.14,.1-.03,.2-.07,.32-.11,.12-.04,.18-.09,.2-.15,.06-.16,.09-.33,.09-.51v-.83c0-.62-.31-.93-.93-.93-.28,0-.51,.08-.69,.24-.18,.16-.26,.39-.26,.69Z"/>
      </g>
      <g>
        <path class="cls-3" d="M43,25.75c0-.29-.18-.57-.55-.85-.15-.11-.3-.23-.46-.35-.37-.3-.55-.69-.55-1.15,0-.33,.11-.6,.33-.81,.22-.21,.52-.32,.89-.32h.81v.56h-.67c-.44,0-.66,.21-.66,.62,0,.25,.18,.51,.55,.78,.15,.11,.3,.23,.45,.36,.15,.13,.28,.3,.38,.5,.11,.21,.16,.44,.16,.7,0,.44-.12,.77-.35,.99-.23,.22-.56,.33-.98,.33h-.9v-.56h.79c.51,0,.76-.26,.76-.79Z"/>
        <path class="cls-3" d="M44.52,27.1v-6.51h.74v6.51h-.74Z"/>
        <path class="cls-3" d="M48.92,25.91c0,.39-.12,.7-.36,.92-.24,.22-.58,.33-1.01,.33s-.77-.11-1.01-.33c-.24-.22-.36-.53-.36-.92v-2.47c0-.39,.12-.7,.36-.92,.24-.22,.58-.33,1.01-.33s.77,.11,1.01,.33c.24,.22,.36,.53,.36,.92v2.47Zm-2.01,0c0,.22,.06,.38,.17,.5,.11,.11,.27,.17,.47,.17s.36-.06,.47-.17c.11-.11,.17-.28,.17-.5v-2.47c0-.22-.06-.38-.17-.5-.11-.11-.27-.17-.47-.17s-.36,.06-.47,.17c-.11,.12-.17,.28-.17,.5v2.47Z"/>
        <path class="cls-3" d="M52.42,22.26v5.19c0,.35-.09,.62-.28,.83-.19,.21-.45,.31-.79,.31h-1.1v-.56h.96c.14,0,.26-.05,.34-.14,.08-.1,.13-.22,.13-.37v-.41h-.77c-.34,0-.63-.11-.87-.33-.24-.22-.35-.5-.35-.84v-2.5c0-.33,.12-.61,.36-.84,.24-.22,.53-.33,.87-.33h1.52Zm-.74,.56h-.62c-.17,0-.32,.06-.45,.18-.12,.12-.19,.26-.19,.44v2.5c0,.17,.06,.32,.19,.44,.12,.12,.27,.18,.45,.18h.62v-3.73Z"/>
        <path class="cls-3" d="M53.58,22.26h1.12c.34,0,.61,.1,.81,.3,.2,.2,.3,.48,.3,.82v3.71h-1.39c-.34,0-.63-.12-.87-.36-.24-.24-.36-.54-.36-.91v-.48c0-.29,.07-.54,.22-.73,.14-.2,.33-.34,.54-.42l1.15-.43v-.44c0-.15-.04-.27-.13-.37-.09-.1-.21-.14-.35-.14h-1.05v-.55Zm.28,3.14v.52c0,.17,.06,.31,.19,.43,.12,.12,.27,.18,.45,.18h.62v-2.19l-.82,.31c-.16,.06-.28,.15-.34,.25-.07,.11-.1,.27-.1,.5Z"/>
        <path class="cls-3" d="M56.83,22.26h.58l.08,.27c.09-.03,.22-.07,.41-.12,.19-.06,.32-.09,.41-.11,.24-.07,.46-.1,.66-.1s.35,.08,.45,.23c.11,.16,.16,.36,.16,.6v4.06h-.74v-3.82c0-.18-.01-.3-.04-.38-.03-.07-.07-.11-.15-.11s-.43,.1-1.07,.3v4.01h-.74v-4.84Z"/>
        <path class="cls-3" d="M62,20.59h.74v1.92c.1-.03,.23-.07,.41-.12s.29-.09,.37-.11c.2-.06,.41-.08,.61-.08s.36,.08,.46,.23,.16,.36,.16,.6v4.06h-.74v-3.82c0-.18-.01-.3-.04-.38-.03-.07-.07-.11-.15-.11s-.43,.1-1.07,.3v4.01h-.74v-6.51Z"/>
        <path class="cls-3" d="M66.95,26.54h1v.56h-1.12c-.34,0-.61-.1-.81-.31-.2-.21-.3-.48-.3-.83v-2.47c0-.4,.11-.72,.33-.95,.22-.23,.55-.34,1-.34s.77,.11,.99,.34,.33,.55,.33,.95v.43c0,.45-.27,.74-.81,.89l-1.1,.31v.91c0,.15,.04,.27,.14,.37,.09,.1,.2,.14,.35,.14Zm-.48-3.21v1.2c.14-.04,.29-.08,.46-.13,.16-.04,.27-.07,.33-.09,.06-.02,.12-.04,.2-.07,.07-.02,.11-.06,.12-.09,.04-.1,.06-.21,.06-.32v-.51c0-.38-.19-.58-.58-.58-.17,0-.31,.05-.42,.15-.11,.1-.16,.24-.16,.43Z"/>
        <path class="cls-3" d="M70.91,22.2v.55c-.16,0-.51,.13-1.05,.39v3.96h-.74v-4.84h.58l.08,.34c.38-.19,.64-.3,.78-.34,.14-.04,.26-.06,.35-.06Z"/>
        <path class="cls-3" d="M72.69,26.54h1v.56h-1.12c-.34,0-.61-.1-.81-.31-.2-.21-.3-.48-.3-.83v-2.47c0-.4,.11-.72,.33-.95,.22-.23,.56-.34,1-.34s.77,.11,.99,.34c.22,.23,.33,.55,.33,.95v.43c0,.45-.27,.74-.81,.89l-1.1,.31v.91c0,.15,.04,.27,.13,.37,.09,.1,.21,.14,.35,.14Zm-.48-3.21v1.2c.14-.04,.29-.08,.46-.13,.16-.04,.27-.07,.33-.09,.06-.02,.12-.04,.2-.07,.07-.02,.11-.06,.13-.09,.04-.1,.06-.21,.06-.32v-.51c0-.38-.19-.58-.58-.58-.17,0-.31,.05-.42,.15-.11,.1-.16,.24-.16,.43Z"/>
      </g>
    </g>
  </g>
</svg>